<mxfile host="app.diagrams.net" modified="2023-10-26T06:13:48.266Z" agent="Mozilla/5.0 (Windows NT 10.0; Win64; x64) AppleWebKit/537.36 (KHTML, like Gecko) Chrome/116.0.0.0 Safari/537.36" version="22.0.8" etag="uj0GX1sh8ewYB7vRNS42" type="github">
  <diagram name="Page-1" id="svE0iCpalE5g15vHc8z4">
    <mxGraphModel>
      <root>
        <mxCell id="0" />
        <mxCell id="1" parent="0" />
      </root>
    </mxGraphModel>
  </diagram>
</mxfile>
